<?xml version="1.0" standalone="no"?>
<!DOCTYPE svg PUBLIC "-//W3C//DTD SVG 20010904//EN"
 "http://www.w3.org/TR/2001/REC-SVG-20010904/DTD/svg10.dtd">
<svg version="1.0" xmlns="http://www.w3.org/2000/svg"
 width="802.000000pt" height="742.000000pt" viewBox="0 0 802.000000 742.000000"
 preserveAspectRatio="xMidYMid meet">

<g transform="translate(0.000000,742.000000) scale(0.100000,-0.100000)"
fill="#000000" stroke="none">
<path d="M2381 5834 c0 -11 3 -14 6 -6 3 7 2 16 -1 19 -3 4 -6 -2 -5 -13z"/>
<path d="M4325 4790 c0 -63 -4 -82 -19 -99 -11 -12 -14 -21 -8 -21 37 0 63
125 37 177 -9 17 -11 6 -10 -57z"/>
<path d="M5954 3084 c3 -9 6 -18 6 -20 0 -2 5 -4 10 -4 6 0 10 9 10 20 0 12
-7 20 -16 20 -11 0 -14 -5 -10 -16z"/>
<path d="M3487 3052 c-30 -31 -33 -45 -14 -60 9 -7 17 2 34 39 25 56 19 62
-20 21z"/>
<path d="M6145 2984 c36 -28 61 -36 30 -10 -16 14 -34 25 -40 25 -5 0 -1 -7
10 -15z"/>
<path d="M5180 2973 c0 -4 5 -15 10 -23 8 -13 10 -13 10 2 0 9 -4 20 -10 23
-5 3 -10 3 -10 -2z"/>
<path d="M4356 2902 c-17 -33 -10 -66 15 -74 6 -2 14 -19 19 -38 6 -24 7 -13
3 35 -3 39 -9 79 -13 90 -6 18 -9 16 -24 -13z"/>
<path d="M6240 2926 c0 -2 8 -10 18 -17 15 -13 16 -12 3 4 -13 16 -21 21 -21
13z"/>
<path d="M5238 2894 c6 -11 18 -28 27 -39 15 -19 15 -18 1 12 -9 17 -21 35
-27 39 -8 4 -8 1 -1 -12z"/>
<path d="M4411 2034 c0 -11 3 -14 6 -6 3 7 2 16 -1 19 -3 4 -6 -2 -5 -13z"/>
</g>
</svg>
